<?xml version="1.0"?>
<svg xmlns="http://www.w3.org/2000/svg" height="512px" viewBox="0 -24 496 496" width="512px" class=""><g><g fill="#231f20"><path d="m488 72h-56v-32h40c4.417969 0 8-3.582031 8-8v-24c0-4.417969-3.582031-8-8-8h-96c-4.417969 0-8 3.582031-8 8v24c0 4.417969 3.582031 8 8 8h40v32h-160v-32h40c4.417969 0 8-3.582031 8-8v-24c0-4.417969-3.582031-8-8-8h-96c-4.417969 0-8 3.582031-8 8v24c0 4.417969 3.582031 8 8 8h40v32h-152v-32h40c4.417969 0 8-3.582031 8-8v-24c0-4.417969-3.582031-8-8-8h-96c-4.417969 0-8 3.582031-8 8v24c0 4.417969 3.582031 8 8 8h40v32h-64c-4.417969 0-8 3.582031-8 8v272c0 4.417969 3.582031 8 8 8h32v72h-24c-4.417969 0-8 3.582031-8 8s3.582031 8 8 8h440c4.417969 0 8-3.582031 8-8s-3.582031-8-8-8h-8v-72h40c4.417969 0 8-3.582031 8-8v-272c0-4.417969-3.582031-8-8-8zm-104-48v-8h80v8zm-176 0v-8h80v8zm-168 0v-8h80v8zm16 408v-72h16v72zm344-72v72h-312v-72zm32 72h-16v-72h16zm48-88h-464v-256h464zm0 0" data-original="#000000" class="active-path" data-old_color="#000000" fill="#F5F7F6"/><path d="m488 432h-8c-4.417969 0-8 3.582031-8 8s3.582031 8 8 8h8c4.417969 0 8-3.582031 8-8s-3.582031-8-8-8zm0 0" data-original="#000000" class="active-path" data-old_color="#000000" fill="#F5F7F6"/><path d="m56 320h128c4.417969 0 8-3.582031 8-8v-176c0-4.417969-3.582031-8-8-8h-128c-4.417969 0-8 3.582031-8 8v176c0 4.417969 3.582031 8 8 8zm8-176h112v160h-112zm0 0" data-original="#000000" class="active-path" data-old_color="#000000" fill="#F5F7F6"/><path d="m260 232c28.71875 0 52-23.28125 52-52s-23.28125-52-52-52-52 23.28125-52 52c.035156 28.703125 23.296875 51.964844 52 52zm0-88c19.882812 0 36 16.117188 36 36s-16.117188 36-36 36-36-16.117188-36-36c.023438-19.875 16.125-35.976562 36-36zm0 0" data-original="#000000" class="active-path" data-old_color="#000000" fill="#F5F7F6"/><path d="m388 232c28.71875 0 52-23.28125 52-52s-23.28125-52-52-52-52 23.28125-52 52c.035156 28.703125 23.296875 51.964844 52 52zm0-88c19.882812 0 36 16.117188 36 36s-16.117188 36-36 36-36-16.117188-36-36c.023438-19.875 16.125-35.976562 36-36zm0 0" data-original="#000000" class="active-path" data-old_color="#000000" fill="#F5F7F6"/><path d="m216 264h216c4.417969 0 8-3.582031 8-8s-3.582031-8-8-8h-216c-4.417969 0-8 3.582031-8 8s3.582031 8 8 8zm0 0" data-original="#000000" class="active-path" data-old_color="#000000" fill="#F5F7F6"/><path d="m216 296h136c4.417969 0 8-3.582031 8-8s-3.582031-8-8-8h-136c-4.417969 0-8 3.582031-8 8s3.582031 8 8 8zm0 0" data-original="#000000" class="active-path" data-old_color="#000000" fill="#F5F7F6"/><path d="m392 280h-16c-4.417969 0-8 3.582031-8 8s3.582031 8 8 8h16c4.417969 0 8-3.582031 8-8s-3.582031-8-8-8zm0 0" data-original="#000000" class="active-path" data-old_color="#000000" fill="#F5F7F6"/></g></g> </svg>
