<?xml version="1.0"?>
<svg xmlns="http://www.w3.org/2000/svg" id="Layer_1" height="512px" viewBox="0 0 128 128" width="512px" data-name="Layer 1"><g><path d="m116.5 30.021h-12.756v-1.012a5.443 5.443 0 1 0 -10.886 0v1.012h-6.611a7.9 7.9 0 0 0 -7.895 7.894 1.75 1.75 0 0 0 1.75 1.75h12.756v8.147h-57.716v-8.147h6.611a7.9 7.9 0 0 0 7.895-7.894 1.75 1.75 0 0 0 -1.75-1.75h-12.756v-1.012a5.443 5.443 0 1 0 -10.886 0v1.012h-6.611a7.9 7.9 0 0 0 -7.895 7.894 1.75 1.75 0 0 0 1.75 1.75h12.756v25.095a1.75 1.75 0 0 0 1.75 1.75h7.386a1.75 1.75 0 0 0 1.75-1.75v-3.79h.5a14.691 14.691 0 0 1 6.17 1.357l-21.831 39.51a1.75 1.75 0 1 0 3.063 1.693l21.756-39.365a14.636 14.636 0 0 1 3.868 4.714l.539 1.041a1.749 1.749 0 0 0 1.554.945h8.508v5.189h-12.469a1.75 1.75 0 0 0 -1.75 1.75v20.913a1.75 1.75 0 0 0 1.75 1.75h34.4a1.75 1.75 0 0 0 1.75-1.75v-20.917a1.75 1.75 0 0 0 -1.75-1.75h-12.468v-5.185h8.508a1.749 1.749 0 0 0 1.606-1.057 14.6 14.6 0 0 1 4.346-5.66l21.764 39.382a1.75 1.75 0 1 0 3.063-1.693l-21.843-39.524a14.674 14.674 0 0 1 6.134-1.343h.549v3.79a1.75 1.75 0 0 0 1.75 1.75h7.386a1.75 1.75 0 0 0 1.75-1.75v-25.095h6.611a7.9 7.9 0 0 0 7.895-7.894 1.75 1.75 0 0 0 -1.751-1.75zm-37.046 66.946h-30.908v-17.413h30.908zm-16.686-20.913v-5.189h2.465v5.189zm33.59-47.045a1.943 1.943 0 1 1 3.886 0v1.012h-3.886zm-68.6 0a1.943 1.943 0 1 1 3.886 0v1.012h-3.888zm-10.113 4.512h28.14a4.4 4.4 0 0 1 -4.031 2.644h-28.141a4.4 4.4 0 0 1 4.032-2.644zm14 29.489h-3.889v-23.345h3.886zm60.665-5.54a18.145 18.145 0 0 0 -16.18 9.9h-24.306l-.05-.1a18.094 18.094 0 0 0 -16.129-9.8h-.5v-6.158h57.713v6.158zm7.935 5.54h-3.887v-23.345h3.886zm10.111-26.845h-28.14a4.4 4.4 0 0 1 4.031-2.644h28.14a4.4 4.4 0 0 1 -4.032 2.644z" data-original="#000000" class="active-path" data-old_color="#000000" fill="#66C0ED"/><path d="m58.455 81.358a6.9 6.9 0 1 0 6.9 6.9 6.911 6.911 0 0 0 -6.9-6.9zm0 10.305a3.4 3.4 0 1 1 3.4-3.4 3.407 3.407 0 0 1 -3.4 3.4z" data-original="#000000" class="active-path" data-old_color="#000000" fill="#66C0ED"/><path d="m66.168 83.108a1.75 1.75 0 0 0 1.75 1.75h6.388a1.75 1.75 0 0 0 0-3.5h-6.388a1.75 1.75 0 0 0 -1.75 1.75z" data-original="#000000" class="active-path" data-old_color="#000000" fill="#66C0ED"/><path d="m64 54.02a5.319 5.319 0 1 0 5.318 5.319 5.325 5.325 0 0 0 -5.318-5.319zm0 7.138a1.819 1.819 0 1 1 1.818-1.819 1.82 1.82 0 0 1 -1.818 1.818z" data-original="#000000" class="active-path" data-old_color="#000000" fill="#66C0ED"/></g> </svg>
