<?xml version="1.0"?>
<svg xmlns="http://www.w3.org/2000/svg" xmlns:xlink="http://www.w3.org/1999/xlink" version="1.1" id="Capa_1" x="0px" y="0px" viewBox="0 0 512 512" style="enable-background:new 0 0 512 512;" xml:space="preserve" width="512px" height="512px"><g><g>
	<g>
		<g>
			<path d="M51.2,298.668h162.133c9.741-0.348,17.37-8.503,17.067-18.246V104.339c0.267-8.759-5.88-16.409-14.492-18.033     L53.783,59.947c-4.743-0.76-9.58,0.612-13.217,3.75c-4.139,3.585-6.491,8.808-6.433,14.283v202.442     C33.83,290.165,41.459,298.321,51.2,298.668z M51.2,77.981c0-0.646,0.217-1.042,0.05-1.154l161.658,26.229     c0.304,0.356,0.456,0.816,0.425,1.283v137.753l-53.358-60.028c-1.561-1.756-3.778-2.79-6.126-2.858s-4.621,0.834-6.282,2.496     l-25.408,25.404l-21.868-24.992c-1.609-1.835-3.926-2.895-6.367-2.912c-2.415,0.091-4.705,1.102-6.4,2.825L51.2,222.386V77.981z      M51.2,247.895l42.575-47.306l53.4,61.033c3.107,3.537,8.491,3.891,12.035,0.791c3.543-3.1,3.908-8.483,0.815-12.033     l-26.604-30.404l19.812-19.808l60.1,67.61v12.645c0.018,0.417-0.095,0.83-0.325,1.179L51.625,281.71     c-0.306-0.356-0.459-0.819-0.425-1.287V247.895z" data-original="#000000" class="active-path" data-old_color="#000000" fill="#F5F7F6"/>
			<path d="M468.125,85.422l-179.2,25.6c-4.432,0.632-7.622,4.582-7.307,9.048c0.316,4.466,4.03,7.929,8.507,7.931     c0.407,0,0.814-0.03,1.217-0.087l179.2-25.6c3.023-0.426,5.587-2.434,6.726-5.266c1.138-2.832,0.677-6.057-1.21-8.456     C474.171,86.192,471.146,84.984,468.125,85.422z" data-original="#000000" class="active-path" data-old_color="#000000" fill="#F5F7F6"/>
			<path d="M290.125,179.202c0.267,0,0.542-0.012,0.817-0.037l179.2-17.067c4.682-0.458,8.111-4.619,7.665-9.302     c-0.446-4.683-4.597-8.123-9.282-7.69l-179.2,17.067c-4.532,0.434-7.925,4.348-7.712,8.896     C281.827,175.616,285.572,179.195,290.125,179.202z" data-original="#000000" class="active-path" data-old_color="#000000" fill="#F5F7F6"/>
			<path d="M469.333,213.335h-179.2c-4.713,0-8.533,3.82-8.533,8.533s3.82,8.533,8.533,8.533h179.2c4.713,0,8.533-3.82,8.533-8.533     S474.046,213.335,469.333,213.335z" data-original="#000000" class="active-path" data-old_color="#000000" fill="#F5F7F6"/>
			<path d="M469.333,264.535h-179.2c-4.713,0-8.533,3.821-8.533,8.533c0,4.713,3.82,8.533,8.533,8.533h179.2     c4.713,0,8.533-3.821,8.533-8.533C477.867,268.355,474.046,264.535,469.333,264.535z" data-original="#000000" class="active-path" data-old_color="#000000" fill="#F5F7F6"/>
			<path d="M503.142,6.281c-5.556-4.852-12.945-7.052-20.25-6.029L256,31.867L29.108,0.252c-7.305-1.031-14.698,1.17-20.25,6.029     C3.222,11.192-0.009,18.305,0,25.781v460.442c-0.009,7.476,3.222,14.589,8.858,19.5c4.64,4.043,10.587,6.272,16.742,6.275     c1.174,0.001,2.346-0.081,3.508-0.246L256,480.136l226.892,31.616c1.162,0.165,2.335,0.247,3.508,0.245     c6.155-0.003,12.101-2.232,16.742-6.275c5.636-4.911,8.868-12.024,8.858-19.5V25.781     C512.009,18.305,508.778,11.192,503.142,6.281z M26.758,494.852c-2.417,0.353-4.866-0.381-6.692-2.004     c-1.925-1.66-3.022-4.083-3-6.625V367.585l129.3-6.221c22.526-1.138,43.739,10.633,54.692,30.35l41.341,73.09L26.758,494.852z      M247.467,439.108l-31.558-55.794c-14.179-25.271-41.414-40.368-70.358-39l-128.483,6.183V25.781     c-0.022-2.542,1.075-4.965,3-6.625c1.517-1.344,3.473-2.087,5.5-2.088c0.399,0.001,0.797,0.029,1.192,0.083l220.708,30.754     V439.108z M494.933,486.222c0.022,2.542-1.075,4.965-3,6.625c-1.822,1.629-4.274,2.363-6.692,2.004l-215.641-30.048l41.341-73.09     c10.967-19.703,32.17-31.469,54.692-30.35l129.3,6.221V486.222z M494.933,350.496l-128.483-6.182     c-28.953-1.403-56.205,13.703-70.358,39l-31.558,55.794V47.906l220.708-30.754c2.416-0.34,4.86,0.392,6.692,2.004     c1.925,1.66,3.022,4.083,3,6.625V350.496z" data-original="#000000" class="active-path" data-old_color="#000000" fill="#F5F7F6"/>
			<path d="M170.667,170.668c14.138,0,25.6-11.462,25.6-25.6s-11.461-25.6-25.6-25.6s-25.6,11.461-25.6,25.6     C145.082,159.2,156.535,170.653,170.667,170.668z M170.667,136.535c4.713,0,8.533,3.82,8.533,8.533s-3.82,8.533-8.533,8.533     s-8.533-3.821-8.533-8.533C162.138,140.357,165.956,136.54,170.667,136.535z" data-original="#000000" class="active-path" data-old_color="#000000" fill="#F5F7F6"/>
		</g>
	</g>
</g></g> </svg>
