<?xml version="1.0"?>
<svg xmlns="http://www.w3.org/2000/svg" xmlns:xlink="http://www.w3.org/1999/xlink" version="1.1" id="Capa_1" x="0px" y="0px" viewBox="0 0 512.003 512.003" style="enable-background:new 0 0 512.003 512.003;" xml:space="preserve" width="512px" height="512px"><g><g>
	<g>
		<path d="M392.727,202.944v-0.002c3.34,12.823,15.017,22.316,28.871,22.316c16.449,0,29.83-13.382,29.83-29.831    s-13.381-29.831-29.83-29.831c-13.854,0-25.531,9.494-28.871,22.316H285.112c-0.041-0.181-0.082-0.362-0.125-0.542l93.189-53.803    c5.67,5.748,13.396,8.887,21.286,8.887c5.058,0,10.18-1.285,14.866-3.991c14.244-8.225,19.143-26.505,10.919-40.75    c-8.223-14.245-26.504-19.141-40.75-10.919c-11.997,6.927-17.363,20.987-13.844,33.762l-92.794,53.575    c-0.181-0.195-0.365-0.388-0.551-0.578l16.51-28.595c2.075-3.594,0.844-8.19-2.75-10.265c-3.594-2.076-8.191-0.845-10.265,2.75    l-16.369,28.351c-0.304-0.09-0.608-0.181-0.917-0.261V58.702c12.823-3.34,22.316-15.017,22.316-28.871    C285.832,13.382,272.451,0,256.001,0c-16.449,0-29.831,13.382-29.831,29.831c0,13.854,9.493,25.531,22.316,28.871v106.833    c-0.308,0.08-0.612,0.171-0.916,0.261l-53.424-92.533c9.434-9.304,11.817-24.163,4.891-36.16    c-3.984-6.901-10.417-11.837-18.113-13.899c-7.699-2.064-15.737-1.004-22.636,2.98c-6.901,3.984-11.836,10.417-13.899,18.113    s-1.004,15.735,2.98,22.636c3.983,6.901,10.417,11.837,18.114,13.899c2.57,0.689,5.178,1.029,7.769,1.029    c2.666,0,5.312-0.367,7.881-1.08l53.563,92.774c-0.186,0.19-0.37,0.383-0.551,0.578l-92.794-53.575    c3.519-12.774-1.847-26.834-13.844-33.762c-14.245-8.225-32.526-3.327-40.75,10.919c-8.224,14.245-3.326,32.525,10.919,40.75    c4.687,2.706,9.807,3.991,14.866,3.991c7.89,0,15.616-3.139,21.286-8.887l93.189,53.804c-0.044,0.18-0.085,0.361-0.125,0.542    H119.276c-3.34-12.823-15.017-22.316-28.871-22.316c-16.449,0-29.83,13.382-29.83,29.831c0,16.449,13.381,29.831,29.83,29.831    c13.854,0,25.531-9.494,28.871-22.316h108.146c0.026,0.088,0.048,0.177,0.075,0.265l-93.661,54.076    c-9.304-9.435-24.163-11.818-36.161-4.891c-14.244,8.224-19.143,26.505-10.919,40.75c3.984,6.901,10.417,11.836,18.114,13.899    c2.57,0.689,5.178,1.029,7.77,1.029c5.168,0,10.271-1.356,14.867-4.01c11.997-6.927,17.363-20.987,13.844-33.761l88.479-51.084    c-0.197,1.302-0.302,2.623-0.302,3.954l-0.002,3.089l-48.391,83.816c-5.068-1.407-10.438-1.446-15.651-0.05    c-7.697,2.063-14.129,6.998-18.114,13.899c-3.984,6.901-5.042,14.94-2.98,22.636c2.063,7.697,6.998,14.13,13.899,18.113    c4.596,2.654,9.698,4.01,14.867,4.01c2.591,0,5.199-0.341,7.769-1.029c7.697-2.063,14.129-6.998,18.113-13.899    c1.202-2.082,2.133-4.269,2.797-6.518c13.271,17.049,24.257,36.889,32.671,59.037c6.525,17.179,18.92,31.72,35.17,41.396    l-4.214,56.255c-0.156,2.085,0.564,4.14,1.985,5.673c1.422,1.532,3.418,2.403,5.509,2.403h83.495c2.09,0,4.086-0.871,5.508-2.403    c1.422-1.532,2.142-3.588,1.986-5.672l-4.202-56.261c17.682-10.565,30.968-27.165,36.807-46.2c1.217-3.968-1.012-8.171-4.98-9.388    c-3.964-1.214-8.169,1.013-9.387,4.98c-5.14,16.753-17.445,31.231-33.76,39.723c-2.665,1.387-4.248,4.229-4.024,7.225    l3.957,52.966h-67.3l3.968-52.964c0.224-2.997-1.359-5.84-4.025-7.227c-15.13-7.872-26.651-20.601-32.442-35.843    c-9.405-24.758-21.874-46.87-37.059-65.721l-2.382-2.956c-2.956-5.259-0.985-10.211,1.904-13.133    c2.831-2.863,7.707-4.826,12.898-1.754c2.755,1.63,4.848,3.869,6.4,6.845c1.599,3.068,5.088,4.65,8.449,3.825    c3.362-0.822,5.727-3.834,5.729-7.294l0.062-97.575c0-3.289,1.415-6.459,3.881-8.698c2.49-2.261,5.703-3.327,9.049-3.003    c5.937,0.576,10.588,5.911,10.588,12.146v65.416v30.023c0,4.15,3.364,7.515,7.515,7.515s7.515-3.364,7.515-7.515v-30.025    c0-6.264,5.76-11.758,12.327-11.758c6.483,0,11.758,5.275,11.758,11.758c0,0.013,0.002,0.026,0.002,0.039v29.986    c0,4.15,3.364,7.515,7.515,7.515s7.515-3.364,7.515-7.515v-29.753c0.003-0.091,0.014-0.18,0.014-0.272    c0-6.483,5.275-11.758,11.758-11.758c5.818,0,10.744,4.264,11.618,9.981l0.083,31.802c0,4.15,3.364,7.515,7.514,7.515    c4.151,0,7.515-3.364,7.515-7.515v-18.995c0.662-5.535,5.525-9.848,11.417-9.848h1.274c6.34,0,11.499,4.995,11.499,11.134v46.497    c0,4.15,3.364,7.515,7.515,7.515s7.515-3.364,7.515-7.515v-39.795c2.401-0.047,4.814-0.373,7.193-1.01    c7.697-2.063,14.129-6.998,18.114-13.899c8.224-14.245,3.326-32.525-10.919-40.75c-12-6.927-26.859-4.544-36.162,4.891    l-93.661-54.076c0.027-0.087,0.049-0.177,0.075-0.265H392.727z M421.598,180.626c8.161,0,14.801,6.64,14.801,14.802    c0,8.162-6.64,14.802-14.801,14.802c-8.163,0-14.802-6.64-14.802-14.802C406.796,187.266,413.435,180.626,421.598,180.626z     M392.011,99.81c2.281-1.317,4.812-1.989,7.376-1.989c1.286,0,2.58,0.169,3.855,0.511c3.819,1.023,7.012,3.473,8.988,6.897    c4.08,7.068,1.65,16.138-5.418,20.219c-3.424,1.977-7.413,2.502-11.232,1.479c-3.819-1.023-7.012-3.473-8.988-6.897    C382.513,112.962,384.943,103.892,392.011,99.81z M180.603,64.836c-3.424,1.977-7.413,2.502-11.231,1.479    c-3.819-1.023-7.012-3.473-8.988-6.897c-1.976-3.424-2.502-7.413-1.479-11.232c1.023-3.818,3.472-7.01,6.896-8.987    c2.281-1.317,4.812-1.99,7.377-1.99c1.286,0,2.58,0.169,3.855,0.511c3.818,1.023,7.011,3.473,8.987,6.897    C190.102,51.684,187.672,60.755,180.603,64.836z M125.409,120.03c-1.976,3.424-5.169,5.873-8.988,6.897    c-3.816,1.023-7.806,0.498-11.232-1.479c-7.067-4.081-9.498-13.152-5.418-20.219c1.977-3.424,5.169-5.873,8.988-6.897    c1.275-0.342,2.569-0.511,3.855-0.511c2.565,0,5.096,0.673,7.377,1.989C127.059,103.892,129.49,112.962,125.409,120.03z     M90.404,210.229c-8.161,0-14.801-6.64-14.801-14.802s6.64-14.802,14.801-14.802c8.162,0,14.802,6.64,14.802,14.802    S98.567,210.229,90.404,210.229z M119.991,291.044c-3.425,1.977-7.413,2.503-11.232,1.479c-3.819-1.023-7.012-3.473-8.988-6.897    c-4.08-7.068-1.651-16.138,5.418-20.219c7.068-4.081,16.139-1.651,20.22,5.418C129.49,277.893,127.059,286.964,119.991,291.044z     M186.021,346.239c-1.976,3.424-5.169,5.873-8.988,6.897c-3.817,1.023-7.806,0.498-11.231-1.479    c-3.425-1.977-5.874-5.169-6.896-8.988c-1.023-3.818-0.498-7.808,1.479-11.232c1.977-3.424,5.168-5.873,8.987-6.896    c3.822-1.024,7.808-0.497,11.232,1.479c3.424,1.977,5.874,5.169,6.896,8.988C188.523,338.826,187.998,342.815,186.021,346.239z     M194.339,317.787c-0.065-0.065-0.124-0.135-0.189-0.199l1.169-2.024C194.956,316.293,194.628,317.034,194.339,317.787z     M229.477,303.32c-9.822-4.694-21.274-2.719-29.143,5.236c-1.334,1.349-2.477,2.805-3.468,4.328l32.641-56.536L229.477,303.32z     M241.201,29.831c0-8.162,6.64-14.802,14.801-14.802s14.801,6.64,14.801,14.802s-6.64,14.802-14.801,14.802    C247.841,44.633,241.201,37.993,241.201,29.831z M269.704,199.977c-3.209-1.868-6.851-3.084-10.769-3.463    c-5.796-0.562-11.589,0.803-16.502,3.785c-0.79-1.806-1.234-3.797-1.234-5.893c0-8.162,6.64-14.802,14.801-14.802    c8.161,0,14.801,6.64,14.801,14.802C270.802,196.377,270.41,198.257,269.704,199.977z M386.594,270.825    c4.081-7.068,13.153-9.498,20.22-5.418c7.068,4.081,9.498,13.152,5.418,20.219c-1.977,3.424-5.169,5.873-8.988,6.897    c-1.555,0.417-3.136,0.563-4.698,0.468c-2.324-6.779-7.388-12.321-13.892-15.334C384.732,275.326,385.347,272.983,386.594,270.825    z M283.103,265.224v-7.827l3.638,6.302C285.49,264.125,284.271,264.629,283.103,265.224z M370.652,270.298    c-0.455,1.653-0.742,3.327-0.9,5.005c-3.989,0.353-7.73,1.568-11.016,3.473c-4.057-9.786-13.696-16.532-24.744-16.532    c-7.564,0-14.405,3.151-19.281,8.209c-2.922-3.032-6.554-5.371-10.62-6.764l-20.987-36.35v-3.722c0-1.37-0.101-2.717-0.29-4.034    L370.652,270.298z" data-original="#000000" class="active-path" data-old_color="#000000" fill="#F5F7F6"/>
	</g>
</g><g>
	<g>
		<path d="M367.614,44.296c-2.063-7.697-6.998-14.13-13.899-18.113c-6.9-3.984-14.94-5.044-22.636-2.98    c-7.697,2.062-14.129,6.998-18.113,13.899c-6.927,11.998-4.543,26.857,4.891,36.16l-10.646,18.44    c-2.075,3.594-0.844,8.19,2.75,10.265c1.184,0.683,2.476,1.008,3.75,1.008c2.597,0,5.123-1.348,6.515-3.759L330.87,80.78    c2.569,0.713,5.215,1.08,7.881,1.08c2.59,0,5.199-0.341,7.769-1.029c7.697-2.062,14.13-6.998,18.114-13.899    S369.677,51.992,367.614,44.296z M351.617,59.417c-1.977,3.424-5.169,5.873-8.988,6.897c-3.817,1.024-7.806,0.498-11.231-1.479    c-7.068-4.08-9.498-13.151-5.417-20.219c1.977-3.424,5.169-5.873,8.987-6.897c1.276-0.341,2.57-0.511,3.855-0.511    c2.564,0,5.096,0.673,7.377,1.99c3.425,1.977,5.874,5.169,6.896,8.987C354.12,52.004,353.594,55.993,351.617,59.417z" data-original="#000000" class="active-path" data-old_color="#000000" fill="#F5F7F6"/>
	</g>
</g></g> </svg>
