<?xml version="1.0"?>
<svg xmlns="http://www.w3.org/2000/svg" height="512px" viewBox="0 -24 480 480" width="512px" className=""><g><path d="m456 0h-432c-13.25.015625-23.984375 10.75-24 24v384c.015625 13.25 10.75 23.984375 24 24h432c13.25-.015625 23.984375-10.75 24-24v-384c-.015625-13.25-10.75-23.984375-24-24zm-432 16h432c4.417969.003906 7.996094 3.582031 8 8v48h-448v-48c.003906-4.417969 3.582031-7.996094 8-8zm432 400h-432c-4.417969-.003906-7.996094-3.582031-8-8v-320h448v320c-.003906 4.417969-3.582031 7.996094-8 8zm0 0" data-original="#000000" className="active-path" data-old_color="#000000" fill="#66C0ED"/><path d="m32 32h24v24h-24zm0 0" data-original="#000000" className="active-path" data-old_color="#000000" fill="#66C0ED"/><path d="m72 32h24v24h-24zm0 0" data-original="#000000" className="active-path" data-old_color="#000000" fill="#66C0ED"/><path d="m112 32h24v24h-24zm0 0" data-original="#000000" className="active-path" data-old_color="#000000" fill="#66C0ED"/><path d="m72 336v-128c.003906-4.417969 3.582031-7.996094 8-8h168v-16h-168c-13.25.015625-23.984375 10.75-24 24v128c.015625 13.25 10.75 23.984375 24 24h152v-16h-152c-4.417969-.003906-7.996094-3.582031-8-8zm0 0" data-original="#000000" className="active-path" data-old_color="#000000" fill="#66C0ED"/><path d="m168 272v-32c-.015625-13.25-10.75-23.984375-24-24h-32c-13.25.015625-23.984375 10.75-24 24v32c.015625 13.25 10.75 23.984375 24 24h32c13.25-.015625 23.984375-10.75 24-24zm-64 0v-32c.003906-4.417969 3.582031-7.996094 8-8h32c4.417969.003906 7.996094 3.582031 8 8v32c-.003906 4.417969-3.582031 7.996094-8 8h-32c-4.417969-.003906-7.996094-3.582031-8-8zm0 0" data-original="#000000" className="active-path" data-old_color="#000000" fill="#66C0ED"/><path d="m184 216h40v16h-40zm0 0" data-original="#000000" className="active-path" data-old_color="#000000" fill="#66C0ED"/><path d="m184 248h32v16h-32zm0 0" data-original="#000000" className="active-path" data-old_color="#000000" fill="#66C0ED"/><path d="m184 280h32v16h-32zm0 0" data-original="#000000" className="active-path" data-old_color="#000000" fill="#66C0ED"/><path d="m112 312h16v16h-16zm0 0" data-original="#000000" className="active-path" data-old_color="#000000" fill="#66C0ED"/><path d="m144 312h80v16h-80zm0 0" data-original="#000000" className="active-path" data-old_color="#000000" fill="#66C0ED"/><path d="m407.195312 178.179688c-6.253906-6.234376-16.371093-6.234376-22.625 0l-15.28125 15.28125c-10.453124-5.019532-21.734374-8.089844-33.289062-9.054688v-16.40625h8c8.832031-.011719 15.988281-7.167969 16-16v-16c-.011719-8.832031-7.167969-15.988281-16-16h-32c-8.832031.011719-15.988281 7.167969-16 16v16c.011719 8.832031 7.167969 15.988281 16 16h8v16.40625c-42.019531 3.398438-76.933594 33.753906-86.148438 74.890625-9.214843 41.136719 9.417969 83.480469 45.972657 104.480469 36.554687 21 82.523437 15.761718 113.417969-12.917969 30.894531-28.683594 39.523437-74.136719 21.296874-112.148437l15.28125-15.28125c6.242188-6.25 6.242188-16.375 0-22.625zm-95.195312-26.179688v-16h32v16zm16 208c-44.183594 0-80-35.816406-80-80s35.816406-80 80-80 80 35.816406 80 80c-.050781 44.160156-35.839844 79.949219-80 80zm78.160156-135.539062c-6.230468-8.742188-13.878906-16.390626-22.621094-22.621094l12.34375-12.347656 22.625 22.625zm0 0" data-original="#000000" className="active-path" data-old_color="#000000" fill="#66C0ED"/><path d="m322.878906 273.855469 47.992188-40.007813 10.25 12.296875-47.992188 40.007813zm0 0" data-original="#000000" className="active-path" data-old_color="#000000" fill="#66C0ED"/></g> </svg>
