<?xml version="1.0"?>
<svg xmlns="http://www.w3.org/2000/svg" height="512px" viewBox="0 -40 480 480" width="512px" class=""><g><path d="m130.046875 384h-18.046875v16h72v-16h-37.246094l19.199219-64h18.046875v-16h-152c-8.835938 0-16-7.164062-16-16v-16h168v-16h-168v-224c0-8.835938 7.164062-16 16-16h336c8.835938 0 16 7.164062 16 16v64h16v-64c0-17.671875-14.328125-32-32-32h-336c-17.671875 0-32 14.328125-32 32v256c0 17.671875 14.328125 32 32 32h117.246094zm0 0" data-original="#000000" class="active-path" data-old_color="#f2f3ee" fill="#f2f3ee"/><path d="m352 80v16h16v-24c0-4.417969-3.582031-8-8-8h-320c-4.417969 0-8 3.582031-8 8v96c0 4.417969 3.582031 8 8 8h144v-16h-136v-80zm0 0" data-original="#000000" class="active-path" data-old_color="#f2f3ee" fill="#f2f3ee"/><path d="m136 240v-40c0-4.417969-3.582031-8-8-8h-88c-4.417969 0-8 3.582031-8 8v40h16v-32h72v32zm0 0" data-original="#000000" class="active-path" data-old_color="#f2f3ee" fill="#f2f3ee"/><path d="m152 200v40h16v-32h16v-16h-24c-4.417969 0-8 3.582031-8 8zm0 0" data-original="#000000" class="active-path" data-old_color="#f2f3ee" fill="#f2f3ee"/><path d="m32 32h16v16h-16zm0 0" data-original="#000000" class="active-path" data-old_color="#f2f3ee" fill="#f2f3ee"/><path d="m64 32h16v16h-16zm0 0" data-original="#000000" class="active-path" data-old_color="#f2f3ee" fill="#f2f3ee"/><path d="m96 32h16v16h-16zm0 0" data-original="#000000" class="active-path" data-old_color="#f2f3ee" fill="#f2f3ee"/><path d="m424 176v-40c0-13.253906-10.746094-24-24-24h-176c-13.253906 0-24 10.746094-24 24v240c0 13.253906 10.746094 24 24 24h112v-16h-112c-4.417969 0-8-3.582031-8-8v-8h120v-16h-120v-216c0-4.417969 3.582031-8 8-8h176c4.417969 0 8 3.582031 8 8v40zm0 0" data-original="#000000" class="active-path" data-old_color="#f2f3ee" fill="#f2f3ee"/><path d="m240 144h24v16h-24zm0 0" data-original="#000000" class="active-path" data-old_color="#f2f3ee" fill="#f2f3ee"/><path d="m280 144h24v16h-24zm0 0" data-original="#000000" class="active-path" data-old_color="#f2f3ee" fill="#f2f3ee"/><path d="m320 144h24v16h-24zm0 0" data-original="#000000" class="active-path" data-old_color="#f2f3ee" fill="#f2f3ee"/><path d="m360 144h24v16h-24zm0 0" data-original="#000000" class="active-path" data-old_color="#f2f3ee" fill="#f2f3ee"/><path d="m248 192h104v-16h-112c-4.417969 0-8 3.582031-8 8v56c0 4.417969 3.582031 8 8 8h96v-16h-88zm0 0" data-original="#000000" class="active-path" data-old_color="#f2f3ee" fill="#f2f3ee"/><path d="m336 280v-16h-96c-4.417969 0-8 3.582031-8 8v56c0 4.417969 3.582031 8 8 8h96v-16h-88v-40zm0 0" data-original="#000000" class="active-path" data-old_color="#f2f3ee" fill="#f2f3ee"/><path d="m456 192h-80c-13.253906 0-24 10.746094-24 24v160c0 13.253906 10.746094 24 24 24h80c13.253906 0 24-10.746094 24-24v-160c0-13.253906-10.746094-24-24-24zm8 184c0 4.417969-3.582031 8-8 8h-80c-4.417969 0-8-3.582031-8-8v-8h96zm0-24h-96v-136c0-4.417969 3.582031-8 8-8h80c4.417969 0 8 3.582031 8 8zm0 0" data-original="#000000" class="active-path" data-old_color="#f2f3ee" fill="#f2f3ee"/><path d="m440 224h-48c-4.417969 0-8 3.582031-8 8v32c0 4.417969 3.582031 8 8 8h48c4.417969 0 8-3.582031 8-8v-32c0-4.417969-3.582031-8-8-8zm-8 32h-32v-16h32zm0 0" data-original="#000000" class="active-path" data-old_color="#f2f3ee" fill="#f2f3ee"/><path d="m440 288h-48c-4.417969 0-8 3.582031-8 8v32c0 4.417969 3.582031 8 8 8h48c4.417969 0 8-3.582031 8-8v-32c0-4.417969-3.582031-8-8-8zm-8 32h-32v-16h32zm0 0" data-original="#000000" class="active-path" data-old_color="#f2f3ee" fill="#f2f3ee"/></g> </svg>
