<svg id="Layer_1" data-name="Layer 1" xmlns="http://www.w3.org/2000/svg" viewBox="0 0 250 250"><defs><style>.cls-1{fill:#66c0ed;}</style></defs><title>seo-blue</title><path className="cls-1" d="M242.62,208.29l-29.87-29a25.77,25.77,0,0,0-30.89-3.58l-12.8-12.42a91.76,91.76,0,0,0,16.19-99.49L170.09,78.53a73.32,73.32,0,0,1-18.89,75.64,78.89,78.89,0,0,1-109.14,0A73.71,73.71,0,0,1,21.9,119.5l39.18-38L101,120.19a6.09,6.09,0,0,0,8.43,0L209.6,23l.1,27.75A7.21,7.21,0,0,0,217,57.83h0a7.22,7.22,0,0,0,7.3-7.13L224.2,7.08A7.23,7.23,0,0,0,216.87,0h0L173.42.11a7.21,7.21,0,0,0-7.3,7.13,7.21,7.21,0,0,0,7.32,7.08h0l28.28-.07-96.55,93.66L65.29,69.22a6.27,6.27,0,0,0-8.43,0L19.69,105.28a73.36,73.36,0,0,1,22.37-57,78.86,78.86,0,0,1,107.87-1.17l13.79-13.37A97.58,97.58,0,0,0,96.63,7.46h0A97.58,97.58,0,0,0,28.27,34.93a91.9,91.9,0,0,0,0,132.61,98.83,98.83,0,0,0,132.36,4l12.79,12.41a23.87,23.87,0,0,0,3.7,30l29.87,29a25.78,25.78,0,0,0,35.63,0A23.92,23.92,0,0,0,242.62,208.29Z"/></svg>