<svg id="Layer_1" data-name="Layer 1" xmlns="http://www.w3.org/2000/svg" viewBox="0 0 250.05 250.1"><defs><style>.cls-1{fill:#f5f7f6;}</style></defs><title>seo</title><path class="cls-1" d="M242.62,208.29l-29.87-29a25.78,25.78,0,0,0-30.89-3.58l-12.8-12.42A91.76,91.76,0,0,0,185.25,63.8L170.09,78.53a73.32,73.32,0,0,1-18.89,75.64,78.9,78.9,0,0,1-109.14,0A73.68,73.68,0,0,1,21.9,119.5l39.18-38L101,120.19a6.09,6.09,0,0,0,8.43,0L209.6,23l.1,27.75a7.2,7.2,0,0,0,7.3,7.08h0a7.23,7.23,0,0,0,7.3-7.13l-.1-43.62A7.23,7.23,0,0,0,216.87,0h0L173.42.11a7.21,7.21,0,0,0-7.3,7.12h0a7.22,7.22,0,0,0,7.32,7.08h0l28.28-.07-96.55,93.66L65.29,69.22a6.27,6.27,0,0,0-8.43,0L19.69,105.28a73.35,73.35,0,0,1,22.37-57,78.86,78.86,0,0,1,107.87-1.17l13.79-13.37A97.56,97.56,0,0,0,96.63,7.46h0A97.56,97.56,0,0,0,28.27,34.93,91.9,91.9,0,0,0,25.6,164.87q1.3,1.37,2.67,2.67a98.84,98.84,0,0,0,132.36,4L173.42,184a23.88,23.88,0,0,0,3.7,30L207,243a25.78,25.78,0,0,0,35.63,0,23.92,23.92,0,0,0,.84-33.82Q243.06,208.7,242.62,208.29Z" transform="translate(0 0)"/></svg>