<svg id="Layer_1" data-name="Layer 1" xmlns="http://www.w3.org/2000/svg" viewBox="0 0 250 250"><defs><style>.cls-1{fill:#66c0ed;}</style></defs><title>target-blue</title><path class="cls-1" d="M242.86,117.86H225.17a100.31,100.31,0,0,0-93-93.08V7.14a7.14,7.14,0,1,0-14.28,0V24.78a100.27,100.27,0,0,0-93,93.08H7.14a7.14,7.14,0,1,0,0,14.28H24.83a100.27,100.27,0,0,0,93,93.08v17.64a7.14,7.14,0,1,0,14.28,0V225.22a100.29,100.29,0,0,0,93-93.08h17.69a7.14,7.14,0,0,0,0-14.28ZM186,186a85.57,85.57,0,0,1-53.83,24.94V195.44a7.14,7.14,0,1,0-14.28,0v15.47a86.06,86.06,0,0,1-78.73-78.77H54.56a7.14,7.14,0,1,0,0-14.28H39.13a86.06,86.06,0,0,1,78.73-78.77V54.56a7.14,7.14,0,1,0,14.28,0V39.09a86,86,0,0,1,78.72,78.77H195.44a7.14,7.14,0,1,0,0,14.28h15.43A85.85,85.85,0,0,1,186,186Zm-12.15-20.62c-19.94,8.92-47.68,9-48.79,9,0,0-28.91-.08-48.85-9,0,0-1.78-11.75,7.09-15.27,10.32-4.1,19.57-7.05,23.91-8.87,5.39-2.26,7.59-9.05,7.2-12.62-3.13-3-12.91-16-11.61-30.48,2-21.84,20.8-22.46,22.2-22.46s20.3.62,22.26,22.46c1.3,14.53-8.48,27.5-11.61,30.48-.39,3.57,1.81,10.36,7.2,12.62,4.33,1.82,13.59,4.77,23.91,8.87C175.6,153.6,173.82,165.35,173.82,165.35Z"/></svg>