<svg id="Layer_1" data-name="Layer 1" xmlns="http://www.w3.org/2000/svg" viewBox="0 0 250 250"><defs><style>.cls-1{fill:#e8e8e8;}.cls-2{fill:#f5f7f6;}.cls-3{fill:#66c0ed;}</style></defs><title>vidPro</title><path class="cls-1" d="M206.56,82.29h0L188.69,0,164.56,5.4h0l2.34,10.81a8.31,8.31,0,0,1-6.22,9.9,8.2,8.2,0,0,1-9.75-6.28v0L148.58,9h0L34.75,34.43h0L37.1,45.24a8.31,8.31,0,0,1-6.23,9.9,8.19,8.19,0,0,1-9.74-6.27v-.06L18.77,38h0L0,42.2,41.58,233.69l18.77-4.19h0l-1.66-7.68a8.29,8.29,0,0,1,6.23-9.89,8.18,8.18,0,0,1,9.73,6.25l0,.07,1.66,7.67h0l27.32-6.11V82.29ZM164.78,45a8.17,8.17,0,0,1,9.73,6.23l0,.09,2.35,10.82A8.3,8.3,0,0,1,170.65,72a8.18,8.18,0,0,1-9.73-6.25l0-.07-2.34-10.82A8.3,8.3,0,0,1,164.78,45ZM31.09,94.77,28.75,84A8.28,8.28,0,0,1,35,74.07h0a8.17,8.17,0,0,1,9.74,6.24l0,.08L47.07,91.2a8.3,8.3,0,0,1-6.23,9.89,8.19,8.19,0,0,1-9.74-6.27Zm10,46L38.75,130A8.29,8.29,0,0,1,45,120h0a8.18,8.18,0,0,1,9.73,6.25l0,.08,2.35,10.81a8.31,8.31,0,0,1-6.23,9.9,8.2,8.2,0,0,1-9.78-6.23l0-.09ZM60.8,193a8.18,8.18,0,0,1-9.73-6.25l0-.07L48.7,175.86A8.3,8.3,0,0,1,54.93,166a8.17,8.17,0,0,1,9.73,6.23l0,.09L67,183.1A8.29,8.29,0,0,1,60.8,193Z"/><path class="cls-2" d="M250,53.91H225.29V65a8.18,8.18,0,1,1-16.36,0h0V53.91H92.37V65A8.19,8.19,0,0,1,76,65V53.91H56.79V250H76v-7.85a8.18,8.18,0,1,1,16.36,0h0V250H208.93v-7.85a8.18,8.18,0,1,1,16.36,0h0V250H250ZM92.37,206.16a8.18,8.18,0,0,1-16.36,0h0V195.09a8.18,8.18,0,0,1,16.36,0h0Zm0-47.06a8.18,8.18,0,0,1-16.36,0h0V148a8.18,8.18,0,0,1,16.36,0h0Zm0-47.06A8.19,8.19,0,1,1,76,112h0V101a8.18,8.18,0,1,1,16.36,0h0Zm132.92,94.12a8.18,8.18,0,0,1-16.36,0h0V195.09a8.18,8.18,0,1,1,16.36,0h0Zm0-47.06a8.18,8.18,0,1,1-16.36,0h0V148a8.18,8.18,0,1,1,16.36,0h0Zm0-47.06a8.18,8.18,0,1,1-16.36,0h0V101a8.18,8.18,0,1,1,16.36,0h0Z"/><polygon class="cls-3" points="125.75 202.38 191.99 151.96 125.75 101.53 125.75 202.38"/></svg>